<?xml version="1.0" standalone="no"?>
<!DOCTYPE svg PUBLIC "-//W3C//DTD SVG 20010904//EN"
 "http://www.w3.org/TR/2001/REC-SVG-20010904/DTD/svg10.dtd">
<svg version="1.0" xmlns="http://www.w3.org/2000/svg"
 width="512.000000pt" height="512.000000pt" viewBox="0 0 512.000000 512.000000"
 preserveAspectRatio="xMidYMid meet">
<metadata>
Created by potrace 1.11, written by Peter Selinger 2001-2013
</metadata>
<g transform="translate(0.000000,512.000000) scale(0.100000,-0.100000)"
fill="#000000" stroke="none">
<path d="M0 2495 l0 -2495 2560 0 2560 0 0 2495 0 2495 -2560 0 -2560 0 0
-2495z m1260 2130 l0 -105 215 0 215 0 0 -110 0 -110 220 0 220 0 0 -110 0
-110 215 0 215 0 0 -105 0 -105 218 -2 217 -3 3 -107 3 -108 214 0 215 0 0
-110 0 -110 220 0 220 0 0 -110 0 -110 215 0 215 0 0 -655 0 -655 -215 0 -215
0 0 -105 0 -105 -220 0 -220 0 0 -110 0 -110 -215 0 -215 0 0 -110 0 -110
-220 0 -220 0 0 -105 0 -105 -215 0 -215 0 0 -110 0 -110 -220 0 -220 0 0
-110 0 -110 -215 0 -214 0 -3 -108 -3 -107 -215 0 -215 0 -3 328 -2 327 215 0
215 0 0 110 0 110 220 0 220 0 0 110 0 110 215 0 215 0 0 105 0 105 220 0 220
0 0 110 0 110 215 0 214 0 3 108 3 107 217 3 217 2 3 108 3 107 213 3 212 2 0
210 0 210 -215 0 -215 0 0 110 0 110 -220 0 -220 0 0 110 0 110 -215 0 -215 0
0 105 0 105 -217 2 -218 3 -3 108 -3 107 -214 0 -215 0 0 110 0 110 -220 0
-220 0 0 105 0 105 -212 2 -213 3 -3 328 -2 327 220 0 220 0 0 -105z"/>
</g>
</svg>
