<svg xmlns="http://www.w3.org/2000/svg" xmlns:xlink="http://www.w3.org/1999/xlink" version="1.1" style="shape-rendering:geometricPrecision; text-rendering:geometricPrecision; image-rendering:optimizeQuality; fill-rule:evenodd; clip-rule:evenodd" viewBox="58.44 -0.5 394.18 512">
<g><path style="opacity:0.998" fill="#e8e8df" d="M 67.5,-0.5 C 158.833,-0.5 250.167,-0.5 341.5,-0.5C 341.5,0.166667 341.833,0.5 342.5,0.5C 342.5,36.8333 342.5,73.1667 342.5,109.5C 378.833,109.5 415.167,109.5 451.5,109.5C 452.494,191.459 452.828,273.459 452.5,355.5C 321.167,355.5 189.833,355.5 58.5,355.5C 58.3333,240.833 58.5,126.166 59,11.5C 60.1486,6.16685 62.9819,2.16685 67.5,-0.5 Z"/></g>
<g><path style="opacity:1" fill="#d9d7ca" d="M 342.5,0.5 C 379.167,36.5 415.5,72.8333 451.5,109.5C 415.167,109.5 378.833,109.5 342.5,109.5C 342.5,73.1667 342.5,36.8333 342.5,0.5 Z"/></g>
<g><path style="opacity:1" fill="#9777a8" d="M 180.5,109.5 C 191.65,107.158 196.483,111.492 195,122.5C 192.393,126.746 188.56,128.579 183.5,128C 180.619,129.251 178.786,131.417 178,134.5C 177.667,150.167 177.333,165.833 177,181.5C 174.701,188.766 170.867,195.099 165.5,200.5C 170.854,205.868 174.687,212.201 177,219.5C 177.044,235.9 177.711,252.233 179,268.5C 179.465,269.931 180.299,271.097 181.5,272C 184.648,273.605 187.981,274.605 191.5,275C 195.788,278.771 196.621,283.271 194,288.5C 176.997,293.993 165.663,287.993 160,270.5C 159.667,254.833 159.333,239.167 159,223.5C 155.173,213.829 148.006,208.996 137.5,209C 130.843,203.381 130.843,197.714 137.5,192C 148.231,192.244 155.398,187.411 159,177.5C 159.333,161.833 159.667,146.167 160,130.5C 161.556,125.72 163.889,121.387 167,117.5C 171.227,114.146 175.727,111.479 180.5,109.5 Z"/></g>
<g><path style="opacity:1" fill="#9778a8" d="M 311.5,109.5 C 326.954,108.783 337.121,115.783 342,130.5C 342.043,147.233 342.71,163.9 344,180.5C 348.344,188.593 355.178,192.426 364.5,192C 370.297,196.543 370.964,201.709 366.5,207.5C 362.349,209.07 358.015,210.237 353.5,211C 348.745,213.667 345.245,217.501 343,222.5C 342.667,237.5 342.333,252.5 342,267.5C 339.713,282.455 331.047,290.455 316,291.5C 309.934,291.606 306.434,288.606 305.5,282.5C 308,275.572 313,272.072 320.5,272C 321.701,271.097 322.535,269.931 323,268.5C 324.289,252.233 324.956,235.9 325,219.5C 327.299,212.234 331.133,205.901 336.5,200.5C 331.133,195.099 327.299,188.766 325,181.5C 324.667,165.833 324.333,150.167 324,134.5C 321.595,129.1 317.428,126.6 311.5,127C 303.702,121.04 303.702,115.207 311.5,109.5 Z"/></g>
<g><path style="opacity:1" fill="#9878a8" d="M 245.5,155.5 C 261.365,154.521 266.865,161.521 262,176.5C 253.98,184.689 246.314,184.355 239,175.5C 235.408,166.834 237.574,160.168 245.5,155.5 Z"/></g>
<g><path style="opacity:1" fill="#997aa9" d="M 246.5,219.5 C 253.115,218.055 257.615,220.389 260,226.5C 260.667,236.5 260.667,246.5 260,256.5C 257.68,264.136 252.847,266.303 245.5,263C 243.683,261.2 242.516,259.034 242,256.5C 241.333,246.167 241.333,235.833 242,225.5C 243.332,223.34 244.832,221.34 246.5,219.5 Z"/></g>
<g><path style="opacity:0.812" fill="#b7a4be" d="M 58.5,355.5 C 189.833,355.5 321.167,355.5 452.5,355.5C 452.5,404.167 452.5,452.833 452.5,501.5C 452.167,501.5 451.833,501.5 451.5,501.5C 451.5,453.167 451.5,404.833 451.5,356.5C 320.833,356.5 190.167,356.5 59.5,356.5C 59.5,404.833 59.5,453.167 59.5,501.5C 59.1667,501.5 58.8333,501.5 58.5,501.5C 58.5,452.833 58.5,404.167 58.5,355.5 Z"/></g>
<g><path style="opacity:1" fill="#9777a8" d="M 451.5,501.5 C 450.937,504.295 449.604,506.628 447.5,508.5C 446.694,509.728 445.694,510.728 444.5,511.5C 318.5,511.5 192.5,511.5 66.5,511.5C 65.3065,510.728 64.3065,509.728 63.5,508.5C 61.3963,506.628 60.063,504.295 59.5,501.5C 59.5,453.167 59.5,404.833 59.5,356.5C 190.167,356.5 320.833,356.5 451.5,356.5C 451.5,404.833 451.5,453.167 451.5,501.5 Z"/></g>
<g><path style="opacity:1" fill="#fefdfe" d="M 154.5,464.5 C 152.711,477.117 145.377,483.617 132.5,484C 120.184,485.421 108.851,482.754 98.5,476C 100.967,472.884 103.301,469.718 105.5,466.5C 113.62,471.058 122.287,472.558 131.5,471C 136.547,469.79 139.213,466.623 139.5,461.5C 140.498,438.006 140.831,414.339 140.5,390.5C 145.167,390.5 149.833,390.5 154.5,390.5C 154.5,415.167 154.5,439.833 154.5,464.5 Z"/></g>
<g><path style="opacity:1" fill="#d5c8dc" d="M 154.5,464.5 C 154.5,439.833 154.5,415.167 154.5,390.5C 149.833,390.5 145.167,390.5 140.5,390.5C 140.831,414.339 140.498,438.006 139.5,461.5C 139.5,437.5 139.5,413.5 139.5,389.5C 144.833,389.5 150.167,389.5 155.5,389.5C 155.831,414.672 155.498,439.672 154.5,464.5 Z"/></g>
<g><path style="opacity:1" fill="#fcfcfd" d="M 197.5,390.5 C 204.222,390.29 210.888,390.79 217.5,392C 220.539,392.353 223.205,393.52 225.5,395.5C 223.961,398.746 222.294,401.912 220.5,405C 213.963,403.63 207.296,403.297 200.5,404C 191.838,407.664 189.338,413.83 193,422.5C 199.455,428.648 206.955,433.148 215.5,436C 230.444,445.347 233.61,457.847 225,473.5C 215.374,482.883 203.874,486.383 190.5,484C 187.107,483.202 183.774,482.202 180.5,481C 178.673,480.101 177.34,478.767 176.5,477C 177.27,473.751 178.27,470.585 179.5,467.5C 187.993,472.012 196.993,473.512 206.5,472C 215.306,467.251 217.472,460.417 213,451.5C 204.587,445.374 195.753,439.874 186.5,435C 177.051,426.121 174.884,415.621 180,403.5C 184.38,397.075 190.213,392.741 197.5,390.5 Z"/></g>
<g><path style="opacity:1" fill="#fcfbfc" d="M 273.5,390.5 C 298.316,388.161 313.483,399.161 319,423.5C 322.285,440.242 319.618,455.908 311,470.5C 296.756,485.876 280.256,488.709 261.5,479C 253.744,473.334 248.578,465.834 246,456.5C 241.467,439.953 242.8,423.953 250,408.5C 255.739,399.574 263.572,393.574 273.5,390.5 Z"/></g>
<g><path style="opacity:1" fill="#fefdfe" d="M 391.5,453.5 C 391.783,454.289 392.283,454.956 393,455.5C 393.5,434.503 393.667,413.503 393.5,392.5C 398.167,392.5 402.833,392.5 407.5,392.5C 407.5,422.833 407.5,453.167 407.5,483.5C 402.5,483.5 397.5,483.5 392.5,483.5C 381.167,463.5 369.833,443.5 358.5,423.5C 358.217,422.711 357.717,422.044 357,421.5C 356.5,442.497 356.333,463.497 356.5,484.5C 351.5,484.5 346.5,484.5 341.5,484.5C 341.5,453.5 341.5,422.5 341.5,391.5C 346.762,391.195 351.928,391.529 357,392.5C 368.512,412.861 380.012,433.194 391.5,453.5 Z"/></g>
<g><path style="opacity:1" fill="#e4dce9" d="M 392.5,392.5 C 392.833,392.5 393.167,392.5 393.5,392.5C 393.667,413.503 393.5,434.503 393,455.5C 392.283,454.956 391.783,454.289 391.5,453.5C 392.497,433.34 392.83,413.007 392.5,392.5 Z"/></g>
<g><path style="opacity:1" fill="#cbbcd4" d="M 392.5,392.5 C 397.64,391.512 402.974,391.179 408.5,391.5C 408.5,422.5 408.5,453.5 408.5,484.5C 402.974,484.821 397.64,484.488 392.5,483.5C 397.5,483.5 402.5,483.5 407.5,483.5C 407.5,453.167 407.5,422.833 407.5,392.5C 402.833,392.5 398.167,392.5 393.5,392.5C 393.167,392.5 392.833,392.5 392.5,392.5 Z"/></g>
<g><path style="opacity:1" fill="#9777a8" d="M 274.5,403.5 C 288.9,401.083 298.4,406.75 303,420.5C 304.969,431.829 304.969,443.162 303,454.5C 297.137,470.78 286.303,475.613 270.5,469C 264.23,463.628 260.73,456.795 260,448.5C 259.147,439.114 259.481,429.781 261,420.5C 263.146,412.865 267.646,407.198 274.5,403.5 Z"/></g>
<g><path style="opacity:1" fill="#a488b3" d="M 358.5,423.5 C 357.833,443.833 357.167,464.167 356.5,484.5C 356.333,463.497 356.5,442.497 357,421.5C 357.717,422.044 358.217,422.711 358.5,423.5 Z"/></g>
<g><path style="opacity:0.275" fill="#e3e0db" d="M 58.5,501.5 C 58.8333,501.5 59.1667,501.5 59.5,501.5C 60.063,504.295 61.3963,506.628 63.5,508.5C 60.142,507.473 58.4754,505.14 58.5,501.5 Z"/></g>
<g><path style="opacity:0.031" fill="#e2e0db" d="M 451.5,501.5 C 451.833,501.5 452.167,501.5 452.5,501.5C 452.525,505.14 450.858,507.473 447.5,508.5C 449.604,506.628 450.937,504.295 451.5,501.5 Z"/></g>
</svg>