<?xml version="1.0" standalone="no"?>
<!DOCTYPE svg PUBLIC "-//W3C//DTD SVG 20010904//EN"
 "http://www.w3.org/TR/2001/REC-SVG-20010904/DTD/svg10.dtd">
<svg version="1.0" xmlns="http://www.w3.org/2000/svg"
 width="768.000000pt" height="768.000000pt" viewBox="0 0 768.000000 768.000000"
 preserveAspectRatio="xMidYMid meet">
<metadata>
Created by potrace 1.14, written by Peter Selinger 2001-2017
</metadata>
<g transform="translate(0.000000,768.000000) scale(0.100000,-0.100000)"
fill="#000000" stroke="none">
<path d="M246 6713 c-3 -4 -15 -8 -26 -10 -42 -6 -120 -66 -165 -125 -13 -16
-36 -67 -44 -93 -8 -26 -8 -5263 0 -5290 9 -32 45 -98 71 -127 27 -32 94 -78
111 -78 7 0 19 -6 25 -13 10 -9 748 -12 3620 -12 l3607 0 45 22 c86 43 144
109 174 197 15 46 16 255 14 2675 l-3 2626 -26 50 c-39 73 -120 152 -162 159
-7 1 -19 6 -27 11 -17 12 -7202 19 -7214 8z"/>
</g>
</svg>
